<?xml version="1.0" standalone="no"?>
<!DOCTYPE svg PUBLIC "-//W3C//DTD SVG 20010904//EN"
 "http://www.w3.org/TR/2001/REC-SVG-20010904/DTD/svg10.dtd">
<svg version="1.0" xmlns="http://www.w3.org/2000/svg"
 width="131.000000pt" height="300.000000pt" viewBox="0 0 131.000000 300.000000"
 preserveAspectRatio="xMidYMid meet">
<metadata>
Created by potrace 1.10, written by Peter Selinger 2001-2011
</metadata>
<g transform="translate(0.000000,300.000000) scale(0.050000,-0.050000)"
fill="#ff94eb" stroke="none">
<path d="M1438 5490 c-2 -11 -1 -28 1 -38 2 -10 -9 -9 -24 4 -21 18 -45 11
-106 -31 -148 -100 -179 -147 -142 -215 50 -94 89 -240 72 -271 -20 -37 27
-119 69 -119 24 0 72 -80 72 -120 0 -11 -25 -14 -55 -8 -32 6 -80 -2 -115 -20
-33 -18 -73 -32 -89 -32 -167 -1 -291 -166 -275 -367 7 -79 3 -183 -8 -233
-59 -254 -59 -450 -1 -465 34 -9 105 -263 133 -479 l12 -93 -101 -49 -101 -48
0 46 c0 37 50 220 111 403 4 14 1 25 -7 25 -33 0 -132 -312 -133 -420 l-1
-110 101 -6 c96 -5 103 -10 127 -75 13 -38 33 -69 43 -69 39 0 15 -104 -122
-511 -164 -489 -284 -924 -258 -940 18 -11 -25 -122 -82 -209 -19 -27 -38 -88
-44 -134 -6 -46 -44 -139 -85 -206 -119 -196 -101 -220 157 -220 256 0 285 15
267 146 -8 58 -2 127 16 188 40 129 37 179 -9 211 -88 62 -34 168 95 188 l112
17 273 816 c151 448 278 820 284 826 6 6 17 -69 23 -166 7 -97 22 -239 33
-316 12 -77 26 -311 31 -520 5 -209 19 -445 30 -525 17 -120 16 -154 -11 -205
-17 -33 -44 -85 -59 -115 -31 -60 -19 -178 25 -260 14 -25 23 -87 20 -138 -7
-134 24 -150 273 -143 l200 6 6 62 c4 43 -9 81 -42 120 -75 91 -97 144 -101
247 -2 69 -18 114 -59 168 -68 88 -58 143 27 160 l59 12 0 799 0 799 65 7 c59
5 65 13 70 76 2 39 10 129 17 202 7 72 3 192 -9 266 -16 102 -15 145 3 174 18
30 18 46 -1 73 -49 69 -62 121 -93 390 -43 374 -109 515 -242 515 -25 0 -69
19 -99 43 l-54 42 52 53 c67 71 137 332 98 365 -15 12 -27 33 -27 46 0 13 -14
41 -30 62 -28 37 -29 35 -11 -16 19 -53 17 -55 -44 -56 l-65 0 50 -28 c37 -21
53 -22 65 -4 8 13 15 -11 15 -53 0 -79 -73 -107 -96 -37 -6 20 3 23 34 14 24
-8 42 -5 42 6 0 33 -44 51 -111 46 -37 -2 -74 9 -89 27 -55 67 -189 -22 -158
-106 21 -56 89 -91 132 -67 21 12 51 11 81 -3 35 -16 52 -16 62 1 36 59 99 4
82 -72 -28 -124 -165 -184 -280 -122 -22 11 -39 13 -39 4 0 -33 49 -65 100
-65 87 0 129 -70 96 -157 -54 -141 -172 -144 -305 -7 -80 82 -93 144 -31 144
29 0 40 13 40 50 0 28 11 50 23 50 13 0 4 21 -20 46 -23 26 -43 57 -43 70 0
13 -17 24 -38 24 -21 0 -43 14 -49 30 -19 49 8 92 54 86 43 -6 47 7 59 192 6
95 237 158 264 72 13 -41 50 -56 50 -21 0 11 15 14 33 7 27 -10 31 -5 20 24
-14 36 -13 36 23 4 46 -42 72 -44 57 -4 -7 18 -1 30 15 30 15 0 32 18 38 40 7
27 0 40 -20 40 -17 0 -48 22 -69 49 -25 32 -50 45 -71 37 -24 -9 -28 -5 -16
14 12 20 8 23 -17 14 -18 -7 -33 -6 -33 3 0 24 -68 20 -85 -5 -10 -15 -14 -14
-15 3 0 14 -18 25 -40 25 -22 0 -40 -11 -40 -25 -1 -17 -7 -15 -20 5 -11 17
-21 21 -22 10z m198 -476 c15 -79 -85 -125 -136 -64 -21 25 -19 38 11 71 44
48 116 44 125 -7z m79 -44 c-2 -31 -16 -50 -37 -50 -24 0 -30 13 -23 50 5 28
22 50 37 50 17 0 26 -19 23 -50z m-411 -314 c-13 -13 -24 -43 -24 -65 0 -23
-19 -53 -43 -68 -41 -26 -42 -24 -30 38 16 78 47 119 89 119 25 0 27 -5 8 -24z
m-138 -146 c-12 -115 13 -147 54 -70 40 74 51 41 88 -245 32 -245 34 -311 13
-465 -13 -98 -22 -291 -19 -428 5 -260 -16 -312 -113 -274 -65 24 -80 572 -16
572 15 0 27 21 27 50 0 28 -10 50 -22 50 -14 0 -20 73 -18 215 2 118 2 251 -1
295 -7 113 -34 -128 -37 -333 l-2 -154 -135 -7 c-169 -9 -158 -26 -126 190 16
101 26 258 23 349 -5 195 30 265 166 327 125 57 131 53 118 -72z m856 -106
c21 -48 52 -201 69 -341 17 -139 39 -283 49 -319 18 -70 -8 -100 -68 -78 -61
24 -108 443 -62 559 9 21 5 35 -8 35 -12 0 -22 -16 -22 -35 -1 -30 -4 -31 -22
-5 -61 88 -1 -376 100 -765 112 -435 123 -508 67 -484 -19 9 -78 30 -131 47
-63 21 -98 45 -104 72 -19 83 -68 568 -80 780 -6 121 -21 295 -33 386 -23 176
-17 205 33 164 44 -36 61 -10 33 51 -37 81 -28 88 59 53 66 -26 90 -49 120
-120z m-507 -66 c63 -24 107 -10 172 54 l50 51 -2 -67 c-2 -77 40 -719 57
-869 14 -122 8 -128 -199 -176 -74 -17 -162 -45 -197 -63 l-62 -32 14 207 c35
564 36 608 4 802 -42 255 -43 249 40 176 40 -35 95 -72 123 -83z m-381 -662
c51 -21 42 -25 -114 -38 -171 -14 -200 -11 -200 22 0 37 234 50 314 16z m1066
-64 c0 -36 -115 -54 -128 -20 -10 25 23 41 93 46 19 1 35 -10 35 -26z m-1090
-267 c0 -251 1 -256 63 -355 81 -130 104 -201 59 -184 -28 11 -30 1 -19 -70 9
-59 7 -78 -10 -68 -13 8 -23 50 -23 93 0 45 -10 79 -22 79 -15 0 -18 -29 -9
-90 7 -49 6 -90 -4 -90 -38 0 -83 54 -102 120 -11 41 -20 54 -22 30 -1 -33 -5
-35 -21 -10 -11 17 -15 106 -8 210 10 152 4 209 -39 369 -58 222 -59 221 63
221 l94 0 0 -255z m1080 50 c25 -266 5 -290 -51 -62 l-50 207 44 0 c40 0 45
-13 57 -145z m-506 -340 c-3 -19 4 -35 15 -35 12 0 21 -8 21 -18 0 -10 -26 -9
-58 3 -51 20 -67 16 -132 -33 -40 -31 -78 -51 -84 -45 -17 18 73 150 110 160
72 20 134 4 128 -32z m-849 -1824 c2 -2 -7 -32 -20 -67 -41 -109 -170 -79
-145 34 12 57 110 76 165 33z m1097 -3 c-7 -17 -12 -40 -12 -50 0 -10 -31 -18
-70 -18 -61 0 -70 6 -70 50 0 45 8 50 82 50 67 0 80 -6 70 -32z m21 -138 c28
-74 -9 -128 -81 -117 -37 6 -72 4 -78 -6 -5 -9 18 -18 53 -18 35 -1 79 -9 98
-17 29 -14 35 -6 35 46 0 34 9 62 20 62 11 0 20 -56 20 -127 0 -109 8 -138 60
-210 80 -110 85 -105 -125 -99 l-184 6 -13 70 c-7 39 -23 95 -35 126 -33 81
-31 205 2 178 20 -17 24 -4 18 57 l-7 79 103 0 c72 0 106 -9 114 -30z m-1177
-85 c6 -55 0 -65 -35 -65 -34 0 -40 9 -30 48 14 53 -11 78 -59 60 -70 -27 -13
-103 103 -137 38 -12 45 -6 45 38 0 32 11 51 30 51 18 0 30 -19 30 -47 0 -27
-13 -86 -30 -133 -16 -47 -30 -114 -30 -150 0 -89 -142 -122 -297 -68 -76 26
-75 20 -11 118 29 44 57 120 63 169 6 50 18 85 28 79 9 -6 17 11 17 37 0 108
166 108 176 0z m-132 -465 c43 0 97 10 119 22 47 25 80 5 36 -23 -55 -36 -388
-14 -395 26 -6 32 -1 32 77 5 46 -17 119 -30 163 -30z m1516 -1 c0 -29 -346
-23 -387 6 -28 20 4 24 177 19 115 -4 210 -15 210 -25z"/>
<path d="M1534 5027 c-27 -27 -13 -43 36 -40 27 2 47 12 43 23 -8 25 -60 36
-79 17z"/>
<path d="M1806 1078 c-32 -32 -10 -78 38 -78 28 0 37 11 32 43 -7 52 -38 67
-70 35z"/>
<path d="M1800 900 c-35 -11 -39 -17 -14 -18 20 -1 32 -9 27 -18 -6 -9 18 -18
52 -20 78 -6 100 -24 30 -24 -91 0 -75 -30 17 -32 94 -3 120 32 53 70 -19 12
-26 21 -15 22 11 0 7 9 -10 20 -35 22 -70 22 -140 0z"/>
<path d="M1850 680 c56 -24 165 -24 180 0 8 13 -31 19 -104 19 -83 -1 -105 -7
-76 -19z"/>
<path d="M620 660 l-90 -14 104 -3 c57 -2 109 6 116 17 13 21 8 21 -130 0z"/>
<path d="M1628 4818 c-1 -32 5 -58 15 -58 9 0 17 9 17 20 0 11 18 20 40 20 22
0 40 10 40 22 0 12 -11 17 -25 12 -14 -5 -38 3 -55 17 -26 22 -30 18 -32 -33z"/>
</g>
</svg>
