<?xml version="1.0" standalone="no"?><svg xmlns="http://www.w3.org/2000/svg" viewBox="0 0 1440 320"><path fill="#ab3de6" fill-opacity="1" d="M0,64L45,96L90,224L135,64L180,32L225,128L270,224L315,160L360,64L405,320L450,256L495,96L540,160L585,224L630,256L675,288L720,64L765,256L810,160L855,64L900,32L945,64L990,160L1035,32L1080,96L1125,192L1170,128L1215,64L1260,288L1305,128L1350,160L1395,0L1440,32L1440,320L1395,320L1350,320L1305,320L1260,320L1215,320L1170,320L1125,320L1080,320L1035,320L990,320L945,320L900,320L855,320L810,320L765,320L720,320L675,320L630,320L585,320L540,320L495,320L450,320L405,320L360,320L315,320L270,320L225,320L180,320L135,320L90,320L45,320L0,320Z"></path></svg>